<svg width="40" height="40" viewBox="0 0 40 40" fill="none" xmlns="http://www.w3.org/2000/svg">
<rect width="40" height="40" fill="#1E1E1E"/>
<g clip-path="url(#clip0_0_1)">
<rect width="1920" height="3342" transform="translate(-300 -2683)" fill="white"/>
<rect x="-300" y="-290" width="948" height="471" fill="#1C1B1F"/>
<circle cx="20" cy="20" r="20" fill="white"/>
<path fill-rule="evenodd" clip-rule="evenodd" d="M16.2793 15.7193C16.4198 15.86 16.4987 16.0506 16.4987 16.2493C16.4987 16.4481 16.4198 16.6387 16.2793 16.7793L13.8093 19.2493H29.9993C30.1983 19.2493 30.389 19.3284 30.5297 19.469C30.6703 19.6097 30.7493 19.8004 30.7493 19.9993C30.7493 20.1983 30.6703 20.389 30.5297 20.5297C30.389 20.6703 30.1983 20.7493 29.9993 20.7493H13.8093L16.2793 23.2193C16.353 23.288 16.4121 23.3708 16.4531 23.4628C16.4941 23.5548 16.5162 23.6541 16.5179 23.7548C16.5197 23.8555 16.5012 23.9555 16.4635 24.0489C16.4257 24.1423 16.3696 24.2272 16.2984 24.2984C16.2272 24.3696 16.1423 24.4257 16.0489 24.4635C15.9555 24.5012 15.8555 24.5197 15.7548 24.5179C15.6541 24.5162 15.5548 24.4941 15.4628 24.4531C15.3708 24.4121 15.288 24.353 15.2193 24.2793L11.4693 20.5293C11.3289 20.3887 11.25 20.1981 11.25 19.9993C11.25 19.8006 11.3289 19.61 11.4693 19.4693L15.2193 15.7193C15.36 15.5789 15.5506 15.5 15.7493 15.5C15.9481 15.5 16.1387 15.5789 16.2793 15.7193Z" fill="black"/>
</g>
<defs>
<clipPath id="clip0_0_1">
<rect width="1920" height="3342" fill="white" transform="translate(-300 -2683)"/>
</clipPath>
</defs>
</svg>
